<svg width="134" height="164" viewBox="0 0 134 164" fill="none" xmlns="http://www.w3.org/2000/svg">
<path d="M16.5 108V85C16.5 82.2 19.5 81.1667 21 81H46C48 81 48.8333 78.9205 49 77.8807V37C49 34.2 47 33.1667 46 33H35C33.4 33 32.3333 34.3333 32 35V60C32 63.2 29.3333 64 28 64H4C1.6 64 1 62 1 61V38C1 34.4 3.66667 33.1667 5 33H30C32.4 33 33 31 33 30V5C33 2.6 36 1.33333 37.5 1H60C74 1 79.8333 16.4535 81 24.1803V75C81 78.6 78.3333 79.8334 77 80H52C49.6 80 48.3333 82 48 83V108C48 110.4 46 111.667 45 112H20C17.2 112 16.5 109.333 16.5 108Z" fill="#D3C5B4" stroke="#D3C5B4"/>
<path d="M68.5 159V136C68.5 133.2 71.5 132.167 73 132H98C100 132 100.833 129.92 101 128.881V88C101 85.2 99 84.1667 98 84H87C85.4 84 84.3333 85.3333 84 86V111C84 114.2 81.3333 115 80 115H56C53.6 115 53 113 53 112V89C53 85.4 55.6667 84.1667 57 84H82C84.4 84 85 82 85 81V56C85 53.6 88 52.3333 89.5 52H112C126 52 131.833 67.4535 133 75.1803V126C133 129.6 130.333 130.833 129 131H104C101.6 131 100.333 133 100 134V159C100 161.4 98 162.667 97 163H72C69.2 163 68.5 160.333 68.5 159Z" fill="#D3C5B4" stroke="#D3C5B4"/>
</svg>
