<?xml version="1.0" standalone="no"?>
<!DOCTYPE svg PUBLIC "-//W3C//DTD SVG 20010904//EN"
 "http://www.w3.org/TR/2001/REC-SVG-20010904/DTD/svg10.dtd">
<svg version="1.0" xmlns="http://www.w3.org/2000/svg"
 width="656.000000pt" height="656.000000pt" viewBox="0 0 656.000000 656.000000"
 preserveAspectRatio="xMidYMid meet">
<metadata>
Created by potrace 1.14, written by Peter Selinger 2001-2017
</metadata>
<g transform="translate(0.000000,656.000000) scale(0.100000,-0.100000)"
fill="#000000" stroke="none">
<path d="M2157 6544 c-3 -3 -25 -6 -49 -8 -69 -4 -160 -57 -191 -111 -9 -14
-13 -179 -17 -567 l-5 -547 -23 -23 -23 -23 -542 -5 c-374 -3 -550 -9 -567
-16 -40 -19 -79 -60 -100 -106 -18 -41 -19 -71 -19 -548 0 -551 -1 -547 58
-587 24 -17 62 -18 562 -18 505 0 538 1 570 19 20 10 46 35 60 54 l24 36 2
520 c2 287 5 531 8 543 3 12 20 31 39 43 34 20 45 21 280 18 242 -3 245 -3
270 -27 14 -13 30 -37 35 -53 7 -20 11 -312 11 -868 0 -743 -2 -841 -16 -869
-31 -63 -9 -61 -588 -61 -572 -1 -559 0 -633 -56 -56 -43 -66 -85 -63 -251 1
-24 1 -145 1 -160 0 -7 0 -29 0 -48 0 -19 0 -43 0 -52 -1 -66 0 -180 0 -188 1
-5 1 -39 0 -75 0 -36 0 -72 0 -80 1 -14 0 -121 -1 -183 -1 -53 21 -110 56
-144 19 -18 40 -34 47 -34 6 -1 23 -3 37 -5 33 -6 -8 -5 540 -5 552 1 528 -3
587 85 l32 47 1 524 c0 590 -2 567 76 605 39 19 62 20 563 20 511 0 523 0 563
21 49 25 72 50 98 104 19 39 19 75 20 1052 0 557 0 1016 1 1020 1 4 1 10 0 13
-1 3 -4 25 -5 50 -2 25 -6 54 -9 65 -3 11 -10 41 -16 66 -29 126 -115 322
-194 439 -58 86 -217 250 -243 250 -3 0 -12 6 -19 14 -21 21 -160 76 -229 91
-45 10 -183 13 -515 14 -249 1 -457 3 -461 6 -4 2 -10 2 -13 -1z"/>
<path d="M4125 4482 c-62 -26 -105 -55 -105 -69 0 -7 -4 -13 -9 -13 -10 0 -29
-47 -29 -70 0 -8 -1 -247 -1 -530 l-2 -516 -23 -29 -24 -30 -549 -5 c-594 -5
-561 -2 -620 -59 -60 -57 -58 -38 -58 -611 0 -489 1 -527 18 -551 40 -59 33
-59 607 -56 l525 2 41 24 c26 14 49 38 62 65 21 40 21 53 22 558 0 284 3 524
6 532 3 9 21 25 39 36 30 19 49 20 266 20 257 0 268 -2 306 -59 l23 -33 0
-844 c0 -913 1 -891 -53 -927 -23 -15 -76 -17 -554 -18 l-528 -1 -51 -23 c-86
-38 -113 -88 -114 -210 -1 -142 -1 -234 0 -265 1 -19 2 -42 1 -50 0 -8 0 -62
0 -120 -1 -58 -1 -139 -1 -180 -1 -158 0 -182 6 -191 3 -5 0 -9 -6 -9 -6 0 -8
-10 -5 -22 2 -13 7 -40 10 -61 7 -55 30 -93 72 -121 l37 -25 522 -1 c313 0
532 4 547 9 38 15 76 51 98 92 17 35 18 69 19 560 l0 523 26 33 c13 18 35 38
47 45 17 10 154 14 568 18 503 5 548 6 566 22 11 10 23 18 27 18 15 0 62 65
73 104 10 31 13 284 13 1081 0 984 -1 1045 -19 1125 -67 300 -232 577 -427
716 -62 45 -159 92 -203 101 -14 2 -29 7 -35 11 -23 14 -58 15 -566 18 -479 3
-528 2 -565 -14z"/>
</g>
</svg>
